<svg width="105" height="105" viewBox="0 0 105 105" fill="none" xmlns="http://www.w3.org/2000/svg">
<circle cx="52.5" cy="52.5" r="52.5" fill="#3E8847"/>
<path d="M40.6051 28.2115C39.552 28.6519 38.9201 29.2168 38.4988 30.0976L38.2882 30.538L37.3691 30.5763C36.5745 30.6146 36.3734 30.6624 35.8086 30.9401C34.9948 31.3422 34.3246 32.0124 33.913 32.8357C33.6162 33.4484 33.597 33.5346 33.597 34.5399C33.597 35.5355 33.6162 35.6313 33.9034 36.2153C34.0757 36.56 34.2672 36.9046 34.3342 37.0004C34.4299 37.1248 34.4012 37.2206 34.1906 37.5365C33.463 38.6471 33.3385 40.2076 33.9034 41.4043C34.0757 41.7586 34.4108 42.266 34.6597 42.534C35.4065 43.3383 36.7372 43.8552 37.7808 43.7595L38.2403 43.7116L38.5467 44.2765C38.7095 44.5829 39.0733 45.052 39.3605 45.3105C39.8583 45.77 39.8679 45.7796 39.8679 46.3157V46.8614L39.4658 46.5072C38.9775 46.0572 37.8957 45.5498 37.1489 45.4158C36.833 45.3583 36.1628 45.3105 35.6554 45.3105C34.5544 45.3105 34.0278 45.5211 33.7311 46.0764C33.5013 46.5072 33.4821 48.3071 33.6928 49.2262C34.0853 50.8729 35.3203 52.242 36.9574 52.8451C37.4744 53.0366 37.867 53.094 38.7478 53.1419L39.8679 53.1898V53.7451V54.3099H39.0541C38.2978 54.3099 38.2116 54.3291 37.9819 54.5588C37.7808 54.7599 37.7521 54.8652 37.7999 55.1524C37.9148 55.88 37.5415 55.8417 44.2815 55.8417H50.3034L50.6098 56.1098C50.9832 56.4545 50.9832 56.3683 50.5428 59.4894C50.3609 60.8106 50.2077 61.9307 50.2077 61.969C50.2077 62.0073 49.6333 62.0648 48.9439 62.0839C47.7951 62.1126 47.6323 62.1413 47.2398 62.352C46.4069 62.8211 45.9186 63.7593 46.0239 64.6976C46.0526 64.9561 46.6462 67.0815 47.326 69.4175C48.5418 73.5343 48.5706 73.6683 48.4748 74.1278C48.3599 74.664 48.044 75.1044 47.5844 75.3533C47.3164 75.4969 46.7994 75.516 41.6869 75.516H36.0862L35.732 75.2959C35.014 74.8459 35.0905 75.2384 33.7406 65.5975C33.0513 60.734 32.496 56.6747 32.496 56.5789C32.496 56.4832 32.6205 56.2726 32.7737 56.1194C33.0513 55.8417 33.0609 55.8417 34.2672 55.8417C35.4161 55.8417 35.4831 55.8322 35.7033 55.6024C36.0192 55.296 36.0192 54.8556 35.7033 54.5397C35.4543 54.2908 35.4448 54.2908 34.047 54.3291C32.9077 54.3578 32.5726 54.3961 32.3045 54.5397C31.5578 54.9322 31.0887 55.6024 31.0025 56.397C30.9642 56.6938 31.3663 59.8245 32.2088 65.7986C33.5587 75.3916 33.5396 75.3054 34.2002 76.0522C34.3629 76.2341 34.7267 76.5117 35.0044 76.6745L35.5118 76.9521L41.5338 76.9809C48.3408 77.0096 48.111 77.0287 48.9439 76.282L49.4131 75.8607L49.6907 76.1479C49.8439 76.3107 50.2268 76.5596 50.5428 76.7224L51.1172 77L59.8294 76.9809L68.5417 76.9521L69.0491 76.6745C69.6139 76.3586 70.0256 75.9373 70.3032 75.3916C70.5522 74.9129 73.3956 65.1954 73.4531 64.6497C73.5392 63.7498 73.0414 62.8115 72.2276 62.352L71.7968 62.1126L68.2832 62.0839L64.76 62.0552L65.344 60.8872C66.962 57.6703 68.1587 53.4866 68.4459 50.0304C68.5129 49.2741 68.5129 49.2453 68.2736 49.006C67.9577 48.6901 67.5173 48.6805 67.2109 48.9773C67.0386 49.1496 66.9715 49.3506 66.9237 49.8676C66.5599 53.4674 65.4301 57.3448 63.8409 60.4372C63.075 61.9307 62.9792 62.0648 62.692 62.0648C62.5101 62.0648 62.4622 62.0265 62.5005 61.8924C62.9026 60.5904 63.3143 57.8044 63.4005 55.7843C63.4771 54.128 63.4005 51.4473 63.2377 50.3368C63.142 49.6857 63.1516 49.657 63.4867 48.9007C64.1568 47.4072 65.2578 45.5594 66.2822 44.2095L66.713 43.6446L66.7801 43.9701C66.8184 44.152 66.895 44.7935 66.9524 45.3966C67.0386 46.3062 67.0864 46.5264 67.2683 46.7178C67.6321 47.1104 68.3023 46.9763 68.4746 46.4785C68.647 45.9711 68.3023 43.1276 68.0055 42.6394C67.6226 42.0075 66.7705 41.7777 66.1195 42.1224C65.6025 42.4096 64.1377 44.3818 63.0941 46.22C62.8356 46.6891 62.6442 46.9285 62.6154 46.8423C62.5867 46.7657 62.4335 46.2391 62.2708 45.6743C61.7346 43.8361 61.0932 42.333 60.6719 41.9309C60.1645 41.4522 59.2646 41.4618 58.7667 41.95C58.4508 42.2564 57.9338 43.4148 57.3977 45.0137L57.0339 46.1051L56.7658 45.636C55.8946 44.1329 54.6117 42.4575 54.1043 42.1415C53.5011 41.7777 52.582 41.9883 52.2182 42.5819C51.864 43.1564 51.7012 44.6307 51.7012 47.321C51.6916 49.9442 51.8065 51.1027 52.2852 53.3908C52.8501 56.1194 53.8936 59.1064 55.0616 61.3276L55.4446 62.0648H53.5968C52.5724 62.0648 51.7395 62.0552 51.7395 62.036C51.7395 62.0265 51.9118 60.8297 52.1129 59.3841C52.5246 56.4928 52.5246 56.1672 52.0842 55.4205C51.6533 54.6929 50.897 54.3099 49.8535 54.3099H49.2312L49.5758 53.8504C50.4087 52.7111 50.7247 51.5622 50.6672 49.9155C50.6385 48.8911 50.5428 48.6518 49.9779 48.2401C49.7577 48.0677 49.5471 48.0295 48.6471 48.0103C46.9909 47.9624 45.9473 48.2688 44.7793 49.1496L44.2719 49.5326V47.6561V45.7892L44.8272 45.2339C45.1431 44.9371 45.4878 44.4775 45.6122 44.2095L45.8324 43.7308L46.6558 43.7212C48.8961 43.6925 50.5236 42.0266 50.5332 39.7576C50.5332 38.8481 50.3704 38.2258 49.93 37.5748L49.6524 37.1535L49.9779 36.6174C50.5045 35.7462 50.6864 34.8271 50.5045 33.8793C50.1311 31.8783 48.5514 30.5667 46.5313 30.5667H45.8516L45.5835 30.0497C45.2293 29.3795 44.4251 28.6136 43.7262 28.2881C43.2571 28.0775 43.0177 28.0296 42.1656 28.0105C41.2753 27.9818 41.0934 28.0009 40.6051 28.2115ZM42.9603 29.6572C43.7166 29.9731 44.291 30.672 44.4634 31.4954C44.607 32.1655 44.808 32.3283 45.392 32.2517C46.8473 32.0698 47.0004 32.0698 47.5174 32.29C48.3504 32.6538 49.0588 33.6782 49.0588 34.5399C49.0588 35.0856 48.7429 35.7653 48.2355 36.3206C47.5653 37.0482 47.5462 37.3067 48.1397 37.8716C49.1163 38.829 49.2886 39.93 48.6376 41.031C48.4269 41.3852 48.1876 41.615 47.8238 41.8352C47.1345 42.2468 46.6366 42.3139 45.8037 42.0937C44.8942 41.8639 44.7219 41.9596 44.4634 42.8308C44.0708 44.1329 43.2571 44.7839 42.022 44.7839C40.7487 44.7743 39.9445 44.0659 39.5807 42.6489C39.4562 42.1702 39.1307 41.9117 38.7478 41.9883C38.5946 42.0266 38.2403 42.0937 37.9531 42.1607C36.517 42.4575 35.081 41.2607 35.081 39.7576C35.081 39.1066 35.3969 38.4077 35.8947 37.9386C36.5458 37.3259 36.5266 36.9812 35.8086 36.2536C34.2002 34.6452 35.5022 31.8879 37.7425 32.1368C38.0489 32.1655 38.4797 32.223 38.719 32.2517C39.2839 32.3187 39.4467 32.1847 39.6286 31.4954C39.8583 30.5954 40.4232 29.9348 41.2082 29.6189C41.5721 29.4753 42.5773 29.4944 42.9603 29.6572ZM60.5188 45.2626C61.4666 48.0582 61.8974 50.8346 61.8974 54.1663C61.8974 56.78 61.6197 59.1543 61.0453 61.3467L60.873 62.0169H59.7337H58.5944L58.5178 61.7297C58.288 60.935 57.8572 58.6277 57.7232 57.4693C57.5413 55.9375 57.5126 52.7015 57.6753 51.2463C57.953 48.5847 58.604 45.9232 59.4656 43.884L59.7241 43.2712L59.9539 43.7882C60.0879 44.0754 60.3368 44.736 60.5188 45.2626ZM54.2383 44.6403C54.8797 45.5115 55.7127 46.8614 56.1722 47.7614L56.5073 48.4316L56.3254 49.6666C55.8467 52.8738 55.952 57.1438 56.5839 60.2361C56.6605 60.6191 56.7084 60.9542 56.6892 60.9829C56.6222 61.0403 55.751 59.2117 55.301 58.0916C54.4393 55.9088 53.8075 53.5727 53.4532 51.1984C53.2043 49.5517 53.1181 46.7466 53.2618 45.2626C53.4149 43.7978 53.4532 43.6063 53.5968 43.7882C53.6543 43.8648 53.9415 44.2478 54.2383 44.6403ZM42.7401 50.2889V54.3099H42.0699H41.3997V50.3368V46.3732L42.0507 46.3349C42.405 46.3157 42.7018 46.2966 42.7209 46.287C42.7305 46.2774 42.7401 48.0773 42.7401 50.2889ZM37.5223 47.1295C37.9531 47.2923 38.2595 47.5125 38.7286 47.9816C39.5328 48.7858 39.7722 49.3698 39.8392 50.691L39.8966 51.6292H39.0828C37.6276 51.6292 36.517 51.1027 35.7799 50.0783C35.2724 49.3794 35.081 48.7092 35.081 47.6944V46.8136L36.0192 46.8614C36.6607 46.8997 37.1298 46.9859 37.5223 47.1295ZM49.1354 50.5091C49.0971 51.3612 49.0492 51.5909 48.7908 52.1366C48.4174 52.9409 47.7855 53.5727 46.9813 53.9461C46.4356 54.2046 46.2058 54.2525 45.3442 54.2908L44.3389 54.3386L44.3868 53.3334C44.4251 52.4717 44.4729 52.242 44.7314 51.6962C45.0761 50.9495 45.6888 50.2985 46.3686 49.9538C47.0196 49.6283 47.4217 49.5421 48.3791 49.5326L49.1833 49.523L49.1354 50.5091ZM71.634 63.8263C71.9212 64.0848 71.9691 64.4678 71.7968 65.071L71.6436 65.6071H59.7337H47.8238L47.6706 65.071C47.4504 64.3146 47.594 63.8551 48.1014 63.6636C48.178 63.6349 53.4628 63.6157 59.839 63.6253C70.9926 63.6444 71.4521 63.654 71.634 63.8263ZM71.117 67.3783C71.0883 67.5123 70.983 67.8665 70.8873 68.1729L70.7149 68.7186L62.692 68.7665C58.2689 68.7952 54.5925 68.8526 54.5064 68.8909C54.3245 68.9771 54.133 69.36 54.133 69.6377C54.133 69.743 54.2383 69.9345 54.3723 70.0589L54.6021 70.2983H62.4144C66.7035 70.2983 70.2171 70.327 70.2171 70.3653C70.2171 70.5376 69.0299 74.4916 68.9055 74.731C68.8384 74.8746 68.5991 75.1044 68.3789 75.2576L67.9768 75.516H59.7337H51.4906L51.0885 75.2576C50.8683 75.1044 50.6289 74.8746 50.5619 74.731C50.4375 74.4916 49.2503 70.5376 49.2503 70.3653C49.2503 70.327 49.8439 70.2983 50.5619 70.2983C51.7778 70.2983 51.8831 70.2791 52.0937 70.0877C52.3714 69.8292 52.381 69.3505 52.132 69.0441C51.9597 68.8239 51.8831 68.8143 50.3513 68.7665L48.7525 68.7186L48.5801 68.1729C48.4844 67.8665 48.3791 67.5123 48.3504 67.3783L48.2929 67.1389H59.7337H71.1745L71.117 67.3783Z" fill="white"/>
<path d="M41.39 33.0654C39.6667 33.3143 38.2019 34.7791 37.9626 36.512C37.6754 38.5991 38.8529 40.4947 40.8156 41.0979C42.29 41.5574 43.8984 41.1649 44.9802 40.0831C45.8419 39.2214 46.2536 38.1013 46.1578 36.8471C45.9951 34.4058 43.8409 32.7112 41.39 33.0654ZM43.1899 34.8366C44.1569 35.2961 44.7217 36.3014 44.626 37.3641C44.4441 39.4608 41.9549 40.4852 40.3656 39.1257C39.188 38.1204 39.1689 36.311 40.3082 35.2578C41.1698 34.4728 42.1272 34.3292 43.1899 34.8366Z" fill="white"/>
</svg>
