<svg width="123" height="123" viewBox="0 0 123 123" fill="none" xmlns="http://www.w3.org/2000/svg">
<g filter="url(#filter0_d_709_292)">
<circle cx="39.5" cy="39.5" r="39.5" transform="matrix(-1 0 0 1 101 17)" fill="white"/>
</g>
<path d="M69.1216 54.6386C69.0286 54.5431 68.6775 54.1349 68.3504 53.7992C66.4328 51.6876 61.4303 48.2313 58.8121 47.1764C58.4144 47.0068 57.4091 46.648 56.872 46.625C56.3574 46.625 55.8667 46.7435 55.3986 46.9838C54.8149 47.3195 54.3468 47.8479 54.0902 48.4716C53.9251 48.9045 53.6685 50.1998 53.6685 50.2228C53.412 51.6399 53.2709 53.9424 53.2709 56.4868C53.2709 58.9111 53.412 61.1199 53.622 62.5583C53.6461 62.5814 53.9026 64.191 54.1832 64.7423C54.6979 65.7496 55.7032 66.375 56.779 66.375H56.872C57.5727 66.3503 59.0462 65.7249 59.0462 65.7019C61.5233 64.6452 66.4103 61.3585 68.3744 59.1745C68.3744 59.1745 68.9276 58.6133 69.1681 58.2627C69.5433 57.7591 69.7292 57.1353 69.7292 56.5115C69.7292 55.8153 69.5192 55.1669 69.1216 54.6386Z" fill="#3E8847"/>
<defs>
<filter id="filter0_d_709_292" x="0.604166" y="0.541666" width="121.792" height="121.792" filterUnits="userSpaceOnUse" color-interpolation-filters="sRGB">
<feFlood flood-opacity="0" result="BackgroundImageFix"/>
<feColorMatrix in="SourceAlpha" type="matrix" values="0 0 0 0 0 0 0 0 0 0 0 0 0 0 0 0 0 0 127 0" result="hardAlpha"/>
<feOffset dy="4.9375"/>
<feGaussianBlur stdDeviation="10.6979"/>
<feComposite in2="hardAlpha" operator="out"/>
<feColorMatrix type="matrix" values="0 0 0 0 0 0 0 0 0 0 0 0 0 0 0 0 0 0 0.12 0"/>
<feBlend mode="normal" in2="BackgroundImageFix" result="effect1_dropShadow_709_292"/>
<feBlend mode="normal" in="SourceGraphic" in2="effect1_dropShadow_709_292" result="shape"/>
</filter>
</defs>
</svg>
