<svg width="36" height="36" viewBox="0 0 36 36" fill="none" xmlns="http://www.w3.org/2000/svg">
<rect width="36" height="36" fill="#81AF75"/>
<g clip-path="url(#clip0_709_375)">
<path d="M14.2918 26.1251C21.8371 26.1251 25.9652 19.8724 25.9652 14.4517C25.9652 14.2759 25.9613 14.0962 25.9535 13.9204C26.7566 13.3397 27.4496 12.6203 28 11.7962C27.2521 12.129 26.458 12.3463 25.6449 12.4407C26.5011 11.9275 27.1421 11.1213 27.4492 10.1716C26.6438 10.6489 25.763 10.9856 24.8445 11.1673C24.2257 10.5098 23.4075 10.0744 22.5164 9.9285C21.6253 9.78261 20.711 9.93433 19.9148 10.3602C19.1186 10.7861 18.4848 11.4624 18.1115 12.2845C17.7382 13.1067 17.6462 14.029 17.8496 14.9087C16.2187 14.8269 14.6233 14.4032 13.1667 13.6652C11.71 12.9272 10.4247 11.8913 9.39414 10.6247C8.87033 11.5278 8.71005 12.5965 8.94586 13.6135C9.18167 14.6306 9.79589 15.5197 10.6637 16.1001C10.0122 16.0794 9.37498 15.904 8.80469 15.5884V15.6392C8.8041 16.5869 9.13175 17.5056 9.73192 18.2391C10.3321 18.9726 11.1678 19.4756 12.0969 19.6626C11.4934 19.8277 10.86 19.8518 10.2457 19.7329C10.5079 20.548 11.018 21.2609 11.7048 21.7721C12.3916 22.2833 13.2209 22.5673 14.077 22.5845C12.6237 23.726 10.8285 24.3452 8.98047 24.3423C8.65274 24.3418 8.32533 24.3217 8 24.2821C9.87738 25.4866 12.0613 26.1263 14.2918 26.1251Z" fill="#E8E4DA"/>
</g>
<defs>
<clipPath id="clip0_709_375">
<rect width="20" height="20" fill="white" transform="translate(8 8)"/>
</clipPath>
</defs>
</svg>
