<svg width="36" height="36" viewBox="0 0 36 36" fill="none" xmlns="http://www.w3.org/2000/svg">
<rect width="36" height="36" fill="#81AF75"/>
<path d="M27.8008 14C27.8008 14 27.6055 12.6211 27.0039 12.0156C26.2422 11.2188 25.3906 11.2148 25 11.168C22.2031 10.9648 18.0039 10.9648 18.0039 10.9648H17.9961C17.9961 10.9648 13.7969 10.9648 11 11.168C10.6094 11.2148 9.75781 11.2188 8.99609 12.0156C8.39453 12.6211 8.20312 14 8.20312 14C8.20312 14 8 15.6211 8 17.2383V18.7539C8 20.3711 8.19922 21.9922 8.19922 21.9922C8.19922 21.9922 8.39453 23.3711 8.99219 23.9766C9.75391 24.7734 10.7539 24.7461 11.1992 24.832C12.8008 24.9844 18 25.0313 18 25.0313C18 25.0313 22.2031 25.0234 25 24.8242C25.3906 24.7773 26.2422 24.7734 27.0039 23.9766C27.6055 23.3711 27.8008 21.9922 27.8008 21.9922C27.8008 21.9922 28 20.375 28 18.7539V17.2383C28 15.6211 27.8008 14 27.8008 14ZM15.9336 20.5938V14.9727L21.3359 17.793L15.9336 20.5938Z" fill="white"/>
</svg>
