<svg width="21" height="22" viewBox="0 0 21 22" fill="none" xmlns="http://www.w3.org/2000/svg">
<path fill-rule="evenodd" clip-rule="evenodd" d="M14.5136 20.4998H6.16579C3.09943 20.4998 0.74703 19.3922 1.41522 14.9346L2.19325 8.89339C2.60515 6.66913 4.02392 5.81787 5.26877 5.81787H15.4473C16.7104 5.81787 18.0468 6.7332 18.5228 8.89339L19.3008 14.9346C19.8683 18.8888 17.58 20.4998 14.5136 20.4998Z" stroke="#09270D" stroke-width="1.5" stroke-linecap="round" stroke-linejoin="round"/>
<path d="M14.651 5.59824C14.651 3.21216 12.7167 1.27787 10.3306 1.27787V1.27787C9.18162 1.273 8.078 1.72603 7.26381 2.53679C6.44963 3.34754 5.99193 4.44923 5.99194 5.59824H5.99194" stroke="#09270D" stroke-width="1.5" stroke-linecap="round" stroke-linejoin="round"/>
<path d="M13.2962 10.1017H13.2505" stroke="#09270D" stroke-width="1.5" stroke-linecap="round" stroke-linejoin="round"/>
<path d="M7.46566 10.1017H7.41989" stroke="#09270D" stroke-width="1.5" stroke-linecap="round" stroke-linejoin="round"/>
</svg>
